<mxfile host="app.diagrams.net" modified="2024-05-23T10:37:31.608Z" agent="Mozilla/5.0 (Windows NT 10.0; Win64; x64) AppleWebKit/537.36 (KHTML, like Gecko) Chrome/124.0.0.0 Safari/537.36" version="24.4.4" etag="bkS16JomEFquCU_MVvTz" type="github">
  <diagram name="PÃ¡gina-1" id="V_BjHKvEPjh8G1yh-bDM">
    <mxGraphModel>
      <root>
        <mxCell id="0" />
        <mxCell id="1" parent="0" />
      </root>
    </mxGraphModel>
  </diagram>
</mxfile>
